<svg width="21" height="21" viewBox="0 0 21 21" fill="none" xmlns="http://www.w3.org/2000/svg">
<path d="M13.75 14.8333L13.6029 15.5688C13.9346 15.6351 14.2696 15.4713 14.4208 15.1687L13.75 14.8333ZM6.16667 7.25L5.83126 6.57918C5.52875 6.73043 5.3649 7.06544 5.43123 7.39709L6.16667 7.25ZM6.55019 7.05824L6.88559 7.72906H6.8856L6.55019 7.05824ZM7.59292 4.31564L8.28928 4.03709V4.03709L7.59292 4.31564ZM6.71146 2.11199L6.0151 2.39053V2.39053L6.71146 2.11199ZM18.888 14.2885L18.6095 14.9849V14.9849L18.888 14.2885ZM16.6844 13.4071L16.9629 12.7107H16.9629L16.6844 13.4071ZM13.9418 14.4498L14.6126 14.7852V14.7852L13.9418 14.4498ZM15.1667 9.41667C15.1667 9.83088 15.5025 10.1667 15.9167 10.1667C16.3309 10.1667 16.6667 9.83088 16.6667 9.41667H15.1667ZM15.5868 7.75837L16.2797 7.47136V7.47136L15.5868 7.75837ZM13.2416 5.41319L13.5286 4.72028V4.72028L13.2416 5.41319ZM11.5833 4.33333C11.1691 4.33333 10.8333 4.66912 10.8333 5.08333C10.8333 5.49755 11.1691 5.83333 11.5833 5.83333V4.33333ZM19.5 9.41667C19.5 9.83088 19.8358 10.1667 20.25 10.1667C20.6642 10.1667 21 9.83088 21 9.41667H19.5ZM19.5903 6.10008L20.2832 5.81306V5.81306L19.5903 6.10008ZM14.8999 1.40971L15.1869 0.716801L15.1869 0.716801L14.8999 1.40971ZM11.5833 0C11.1691 0 10.8333 0.335786 10.8333 0.75C10.8333 1.16421 11.1691 1.5 11.5833 1.5V0ZM19.5 16.3002V18.0833H21V16.3002H19.5ZM2.91667 1.5H4.69976V0H2.91667V1.5ZM13.75 14.8333C13.8971 14.0979 13.8973 14.0979 13.8975 14.098C13.8976 14.098 13.8977 14.098 13.8978 14.0981C13.8981 14.0981 13.8982 14.0981 13.8984 14.0982C13.8986 14.0982 13.8987 14.0982 13.8987 14.0982C13.8986 14.0982 13.8978 14.098 13.8964 14.0978C13.8937 14.0972 13.8884 14.0961 13.8807 14.0944C13.8654 14.091 13.8404 14.0853 13.8067 14.0771C13.7391 14.0606 13.6363 14.0341 13.5046 13.9953C13.2409 13.9178 12.8631 13.792 12.4204 13.6023C11.5317 13.2214 10.4022 12.5916 9.40533 11.5947L8.34467 12.6553C9.51442 13.8251 10.8225 14.5494 11.8296 14.981C12.3348 15.1976 12.7696 15.3427 13.0813 15.4344C13.2374 15.4803 13.3632 15.5129 13.4521 15.5346C13.4966 15.5454 13.532 15.5535 13.5574 15.5591C13.5701 15.5619 13.5803 15.5641 13.5879 15.5657C13.5917 15.5665 13.5949 15.5671 13.5974 15.5676C13.5986 15.5679 13.5997 15.5681 13.6006 15.5683C13.6011 15.5684 13.6015 15.5685 13.6019 15.5686C13.6021 15.5686 13.6023 15.5687 13.6024 15.5687C13.6027 15.5687 13.6029 15.5688 13.75 14.8333ZM9.40533 11.5947C8.40842 10.5978 7.7786 9.46833 7.39769 8.57956C7.20798 8.1369 7.08225 7.75914 7.00468 7.49541C6.96595 7.36371 6.93937 7.26095 6.92292 7.19334C6.91471 7.15955 6.90903 7.1346 6.90564 7.11925C6.90395 7.11158 6.90283 7.10632 6.90225 7.10356C6.90196 7.10218 6.9018 7.10143 6.90178 7.10132C6.90177 7.10126 6.90179 7.10137 6.90184 7.10163C6.90187 7.10177 6.90191 7.10194 6.90195 7.10215C6.90197 7.10226 6.90201 7.10245 6.90202 7.1025C6.90206 7.1027 6.9021 7.10291 6.16667 7.25C5.43123 7.39709 5.43128 7.39732 5.43133 7.39756C5.43134 7.39766 5.4314 7.39791 5.43143 7.3981C5.43151 7.39848 5.43159 7.3989 5.43169 7.39936C5.43188 7.40028 5.4321 7.40137 5.43235 7.40262C5.43287 7.40513 5.43352 7.4083 5.43432 7.41211C5.43593 7.41973 5.43811 7.42994 5.44092 7.44264C5.44652 7.46802 5.4546 7.50337 5.46542 7.54787C5.48706 7.63684 5.51973 7.76259 5.56563 7.91866C5.65734 8.23045 5.80244 8.66518 6.01897 9.17044C6.45057 10.1775 7.17492 11.4856 8.34467 12.6553L9.40533 11.5947ZM6.50208 7.92082L6.88559 7.72906L6.21478 6.38742L5.83126 6.57918L6.50208 7.92082ZM8.28928 4.03709L7.40782 1.83344L6.0151 2.39053L6.89656 4.59418L8.28928 4.03709ZM19.1666 13.5922L16.9629 12.7107L16.4058 14.1034L18.6095 14.9849L19.1666 13.5922ZM13.2709 14.1144L13.0792 14.4979L14.4208 15.1687L14.6126 14.7852L13.2709 14.1144ZM16.9629 12.7107C15.5545 12.1474 13.9493 12.7576 13.2709 14.1144L14.6126 14.7852C14.9421 14.1262 15.7217 13.8298 16.4058 14.1034L16.9629 12.7107ZM6.8856 7.72906C8.24238 7.05067 8.85265 5.44552 8.28928 4.03709L6.89656 4.59418C7.1702 5.27827 6.87378 6.05792 6.21478 6.38742L6.8856 7.72906ZM4.69976 1.5C5.27904 1.5 5.79996 1.85268 6.0151 2.39053L7.40782 1.83344C6.96488 0.726108 5.8924 0 4.69976 0V1.5ZM21 16.3002C21 15.1076 20.2739 14.0351 19.1666 13.5922L18.6095 14.9849C19.1473 15.2 19.5 15.721 19.5 16.3002H21ZM18.0833 19.5C8.92461 19.5 1.5 12.0754 1.5 2.91667H0C0 12.9038 8.09618 21 18.0833 21V19.5ZM18.0833 21C19.6942 21 21 19.6942 21 18.0833H19.5C19.5 18.8657 18.8657 19.5 18.0833 19.5V21ZM1.5 2.91667C1.5 2.13426 2.13426 1.5 2.91667 1.5V0C1.30584 0 0 1.30584 0 2.91667H1.5ZM16.6667 9.41667C16.6667 8.74911 16.5352 8.0881 16.2797 7.47136L14.8939 8.04538C15.074 8.48013 15.1667 8.9461 15.1667 9.41667H16.6667ZM16.2797 7.47136C16.0243 6.85462 15.6498 6.29424 15.1778 5.82221L14.1171 6.88287C14.4499 7.21561 14.7138 7.61063 14.8939 8.04538L16.2797 7.47136ZM15.1778 5.82221C14.7058 5.35018 14.1454 4.97574 13.5286 4.72028L12.9546 6.1061C13.3894 6.28618 13.7844 6.55012 14.1171 6.88287L15.1778 5.82221ZM13.5286 4.72028C12.9119 4.46482 12.2509 4.33333 11.5833 4.33333V5.83333C12.0539 5.83333 12.5199 5.92602 12.9546 6.1061L13.5286 4.72028ZM21 9.41667C21 8.18005 20.7564 6.95555 20.2832 5.81306L18.8974 6.38709C19.2952 7.34758 19.5 8.37703 19.5 9.41667H21ZM20.2832 5.81306C19.81 4.67058 19.1163 3.6325 18.2419 2.75808L17.1813 3.81874C17.9164 4.55387 18.4995 5.4266 18.8974 6.38709L20.2832 5.81306ZM18.2419 2.75808C17.3675 1.88366 16.3294 1.19003 15.1869 0.716801L14.6129 2.10262C15.5734 2.50047 16.4461 3.08361 17.1813 3.81874L18.2419 2.75808ZM15.1869 0.716801C14.0445 0.243569 12.8199 0 11.5833 0V1.5C12.623 1.5 13.6524 1.70477 14.6129 2.10262L15.1869 0.716801Z" fill="#797C7B"/>
</svg>
